<?xml version="1.0"?>
<svg xmlns="http://www.w3.org/2000/svg" xmlns:xlink="http://www.w3.org/1999/xlink" xmlns:svgjs="http://svgjs.com/svgjs" version="1.1" width="512" height="512" x="0" y="0" viewBox="0 0 24 24" style="enable-background:new 0 0 512 512" xml:space="preserve"><g><path xmlns="http://www.w3.org/2000/svg" d="m20.25 11c-.267 0-.529.029-.782.082-.337-3.409-3.222-6.082-6.718-6.082-.414 0-.75.336-.75.75v12c0 .414.336.75.75.75h7.5c2.069 0 3.75-1.681 3.75-3.75 0-2.067-1.681-3.75-3.75-3.75z" fill="#ffffff" data-original="#000000" style=""/><path xmlns="http://www.w3.org/2000/svg" d="m9 7.25v10.5c0 .414.336.75.75.75s.75-.336.75-.75v-10.5c0-.414-.336-.75-.75-.75s-.75.336-.75.75z" fill="#ffffff" data-original="#000000" style=""/><path xmlns="http://www.w3.org/2000/svg" d="m6 10.25v7.5c0 .414.336.75.75.75s.75-.336.75-.75v-7.5c0-.414-.336-.75-.75-.75s-.75.336-.75.75z" fill="#ffffff" data-original="#000000" style=""/><path xmlns="http://www.w3.org/2000/svg" d="m3 17.75c0 .414.336.75.75.75s.75-.336.75-.75v-7.5c0-.414-.336-.75-.75-.75s-.75.336-.75.75z" fill="#ffffff" data-original="#000000" style=""/><path xmlns="http://www.w3.org/2000/svg" d="m.75 18.5c.414 0 .75-.336.75-.75v-4.5c0-.414-.336-.75-.75-.75s-.75.336-.75.75v4.5c0 .414.336.75.75.75z" fill="#ffffff" data-original="#000000" style=""/></g></svg>
